<svg xmlns="http://www.w3.org/2000/svg" viewBox="0 0 20 17" width="20" height="17">
	<style>
		tspan { white-space:pre }
		.shp0 { fill: #ffffff } 
	</style>
	<g id="FOOTER">
		<g id="loja">
			<g id="redes">
				<g id="twitter">
					<path id="Shape 3" class="shp0" d="M17.74 3.51C17.39 3.67 17.02 3.79 16.64 3.88C17.06 3.49 17.37 3 17.55 2.46L17.55 2.46C17.6 2.31 17.43 2.18 17.29 2.26L17.29 2.26C16.76 2.56 16.19 2.79 15.6 2.94C15.56 2.95 15.53 2.95 15.49 2.95C15.39 2.95 15.28 2.91 15.2 2.84C14.57 2.3 13.76 2 12.92 2C12.55 2 12.18 2.06 11.82 2.16C10.71 2.5 9.84 3.4 9.57 4.52C9.47 4.93 9.44 5.35 9.49 5.76C9.5 5.8 9.47 5.84 9.46 5.85C9.43 5.88 9.4 5.89 9.36 5.89C9.36 5.89 9.36 5.89 9.35 5.89C6.9 5.67 4.7 4.52 3.14 2.65L3.14 2.65C3.06 2.55 2.9 2.57 2.84 2.67L2.84 2.67C2.53 3.18 2.37 3.77 2.37 4.37C2.37 5.28 2.75 6.14 3.4 6.77C3.13 6.7 2.86 6.6 2.61 6.47L2.61 6.47C2.49 6.41 2.35 6.49 2.35 6.62L2.35 6.62C2.33 7.98 3.14 9.19 4.36 9.73C4.34 9.73 4.31 9.73 4.29 9.73C4.09 9.73 3.9 9.71 3.71 9.68L3.71 9.68C3.57 9.65 3.46 9.78 3.5 9.9L3.5 9.9C3.9 11.11 4.96 12 6.23 12.2C5.18 12.89 3.95 13.26 2.67 13.26L2.27 13.26C2.14 13.26 2.04 13.34 2.01 13.45C1.98 13.57 2.03 13.69 2.14 13.75C3.58 14.57 5.23 15 6.9 15C8.36 15 9.73 14.72 10.96 14.16C12.09 13.65 13.1 12.91 13.94 11.98C14.72 11.11 15.33 10.11 15.76 9C16.16 7.94 16.38 6.82 16.38 5.74L16.38 5.69C16.38 5.52 16.46 5.35 16.6 5.24C17.13 4.82 17.59 4.33 17.97 3.77L17.97 3.77C18.07 3.62 17.91 3.44 17.74 3.51L17.74 3.51Z" />
				</g>
			</g>
		</g>
	</g>
</svg>