<svg xmlns="http://www.w3.org/2000/svg" viewBox="0 0 16 20" width="16" height="20">
	<style>
		tspan { white-space:pre }
		.shp0 { fill: #cdcdcd } 
	</style>
	<g id="carrinho hover">
		<g id="01">
			<path id="excluir" class="shp0" d="M3.8 17.78C3.8 17.78 4.07 19 5.43 19L11.57 19C12.93 19 13.2 17.78 13.2 17.78L14.41 5.8L2.59 5.8L3.8 17.78ZM10.86 7.6C10.86 7.27 11.13 7 11.45 7C11.78 7 12.05 7.27 12.05 7.6L11.45 16.6C11.45 16.93 11.19 17.2 10.86 17.2C10.54 17.2 10.27 16.93 10.27 16.6L10.86 7.6ZM7.91 7.6C7.91 7.27 8.17 7 8.5 7C8.83 7 9.09 7.27 9.09 7.6L9.09 16.6C9.09 16.93 8.83 17.2 8.5 17.2C8.17 17.2 7.91 16.93 7.91 16.6L7.91 7.6L7.91 7.6ZM5.55 7C5.87 7 6.14 7.27 6.14 7.6L6.73 16.6C6.73 16.93 6.46 17.2 6.14 17.2C5.81 17.2 5.55 16.93 5.55 16.6L4.95 7.6C4.95 7.27 5.22 7 5.55 7ZM14.05 3.4L11.45 3.4L11.45 2.2C11.45 1.29 11.16 1 10.27 1L6.73 1C5.91 1 5.55 1.4 5.55 2.2L5.55 3.4L2.95 3.4C2.42 3.4 2 3.8 2 4.3C2 4.8 2.42 5.2 2.95 5.2L14.05 5.2C14.58 5.2 15 4.8 15 4.3C15 3.8 14.58 3.4 14.05 3.4ZM10.27 3.4L6.73 3.4L6.73 2.2L10.27 2.2L10.27 3.4L10.27 3.4Z" />
		</g>
	</g>
</svg>