<svg xmlns="http://www.w3.org/2000/svg" viewBox="0 0 20 20" width="20" height="20">
	<style>
		tspan { white-space:pre }
		.shp0 { fill: #ffffff } 
	</style>
	<g id="FOOTER">
		<g id="loja">
			<g id="redes">
				<g id="insta">
					<path id="Forma 1" class="shp0" d="M13.58 2L6.42 2C3.98 2 2 3.98 2 6.42L2 13.58C2 16.02 3.98 18 6.42 18L13.58 18C16.02 18 18 16.02 18 13.58L18 6.42C18 3.98 16.02 2 13.58 2ZM16.58 13.58C16.58 15.24 15.24 16.58 13.58 16.58L6.42 16.58C4.76 16.58 3.42 15.24 3.42 13.58L3.42 6.42C3.42 4.76 4.76 3.42 6.42 3.42L13.58 3.42C15.24 3.42 16.58 4.76 16.58 6.42L16.58 13.58L16.58 13.58ZM10 5.88C7.73 5.88 5.88 7.73 5.88 10C5.88 12.27 7.73 14.12 10 14.12C12.27 14.12 14.12 12.27 14.12 10C14.12 7.73 12.27 5.88 10 5.88ZM10 12.7C8.51 12.7 7.3 11.49 7.3 10C7.3 8.51 8.51 7.3 10 7.3C11.49 7.3 12.7 8.51 12.7 10C12.7 11.49 11.49 12.7 10 12.7ZM14.3 4.67C14.02 4.67 13.75 4.78 13.56 4.98C13.37 5.17 13.25 5.44 13.25 5.71C13.25 5.99 13.37 6.26 13.56 6.45C13.75 6.64 14.02 6.76 14.3 6.76C14.57 6.76 14.84 6.64 15.03 6.45C15.23 6.26 15.34 5.99 15.34 5.71C15.34 5.44 15.23 5.17 15.03 4.98C14.84 4.78 14.57 4.67 14.3 4.67Z" />
				</g>
			</g>
		</g>
	</g>
</svg>